<?xml version="1.0" encoding="UTF-8" standalone="no"?>
<svg
   height="24px"
   viewBox="0 0 24 24"
   width="24px"
   fill="#000000"
   version="1.1"
   id="svg6"
   sodipodi:docname="headset_off.svg"
   inkscape:version="1.1.1 (3bf5ae0d25, 2021-09-20)"
   xmlns:inkscape="http://www.inkscape.org/namespaces/inkscape"
   xmlns:sodipodi="http://sodipodi.sourceforge.net/DTD/sodipodi-0.dtd"
   xmlns="http://www.w3.org/2000/svg"
   xmlns:svg="http://www.w3.org/2000/svg">
  <defs
     id="defs10" />
  <sodipodi:namedview
     id="namedview8"
     pagecolor="#ffffff"
     bordercolor="#666666"
     borderopacity="1.0"
     inkscape:pageshadow="2"
     inkscape:pageopacity="0.0"
     inkscape:pagecheckerboard="0"
     showgrid="false"
     showguides="true"
     inkscape:guide-bbox="true"
     inkscape:zoom="29.708333"
     inkscape:cx="20.684432"
     inkscape:cy="2.8106592"
     inkscape:window-width="1920"
     inkscape:window-height="1035"
     inkscape:window-x="0"
     inkscape:window-y="45"
     inkscape:window-maximized="1"
     inkscape:current-layer="svg6"
     inkscape:snap-bbox="false">
    <sodipodi:guide
       position="11.343619,12.925666"
       orientation="0,-1"
       id="guide6209" />
  </sodipodi:namedview>
  <path
     d="M0 0h24v24H0V0z"
     fill="none"
     id="path2" />
  <path
     d="M19 14v3c0 .55-.45 1-1 1h-1v-4h2M7 14v4H6c-.55 0-1-.45-1-1v-3h2m5-13c-4.97 0-9 4.03-9 9v7c0 1.66 1.34 3 3 3h3v-8H5v-2c0-3.87 3.13-7 7-7s7 3.13 7 7v2h-4v8h3c1.66 0 3-1.34 3-3v-7c0-4.97-4.03-9-9-9z"
     id="path4" />
  <g
     aria-label="OFF"
     id="text7917"
     style="font-style:italic;font-size:5.33333px;line-height:124%;font-family:Sans;-inkscape-font-specification:'Sans Italic';letter-spacing:0px;word-spacing:0px;stroke-width:1px">
    <path
       d="m 8.9401061,7.5185425 q -0.5729163,0 -0.9114578,0.4270831 -0.3359373,0.427083 -0.3359373,1.1640618 0,0.7343745 0.3359373,1.1614576 0.3385415,0.427083 0.9114578,0.427083 0.5729163,0 0.9062495,-0.427083 0.3359374,-0.4270831 0.3359374,-1.1614576 0,-0.7369788 -0.3359374,-1.1640618 Q 9.5130224,7.5185425 8.9401061,7.5185425 Z m 0,-0.4270831 q 0.8177078,0 1.3072909,0.5494788 0.489583,0.5468747 0.489583,1.4687492 0,0.9192706 -0.489583,1.4687486 -0.4895831,0.546875 -1.3072909,0.546875 -0.820312,0 -1.3124992,-0.546875 -0.4895831,-0.546874 -0.4895831,-1.4687486 0,-0.9218745 0.4895831,-1.4687492 0.4921872,-0.5494788 1.3124992,-0.5494788 z"
       style="font-style:normal;-inkscape-font-specification:Sans"
       id="path19348" />
    <path
       d="m 11.559896,7.1617719 h 2.234374 v 0.442708 h -1.708332 v 1.1458327 h 1.541665 V 9.1930207 H 12.085938 V 11.04979 h -0.526042 z"
       style="font-style:normal;-inkscape-font-specification:Sans"
       id="path19350" />
    <path
       d="m 14.627603,7.1617719 h 2.234373 v 0.442708 H 15.153644 V 8.7503126 H 16.69531 V 9.1930207 H 15.153644 V 11.04979 h -0.526041 z"
       style="font-style:normal;-inkscape-font-specification:Sans"
       id="path19352" />
  </g>
</svg>
