<?xml version="1.0" encoding="UTF-8" standalone="no"?>
<svg
   height="24px"
   viewBox="0 0 24 24"
   width="24px"
   fill="#000000"
   version="1.1"
   id="svg6"
   sodipodi:docname="headset_amb.svg"
   inkscape:version="1.1.1 (3bf5ae0d25, 2021-09-20)"
   xmlns:inkscape="http://www.inkscape.org/namespaces/inkscape"
   xmlns:sodipodi="http://sodipodi.sourceforge.net/DTD/sodipodi-0.dtd"
   xmlns="http://www.w3.org/2000/svg"
   xmlns:svg="http://www.w3.org/2000/svg">
  <defs
     id="defs10" />
  <sodipodi:namedview
     id="namedview8"
     pagecolor="#ffffff"
     bordercolor="#666666"
     borderopacity="1.0"
     inkscape:pageshadow="2"
     inkscape:pageopacity="0.0"
     inkscape:pagecheckerboard="0"
     showgrid="false"
     showguides="true"
     inkscape:guide-bbox="true"
     inkscape:zoom="29.708333"
     inkscape:cx="20.684432"
     inkscape:cy="2.8106592"
     inkscape:window-width="1920"
     inkscape:window-height="1035"
     inkscape:window-x="0"
     inkscape:window-y="45"
     inkscape:window-maximized="1"
     inkscape:current-layer="svg6"
     inkscape:snap-bbox="false">
    <sodipodi:guide
       position="11.343619,12.925666"
       orientation="0,-1"
       id="guide6209" />
  </sodipodi:namedview>
  <path
     d="M0 0h24v24H0V0z"
     fill="none"
     id="path2" />
  <path
     d="M19 14v3c0 .55-.45 1-1 1h-1v-4h2M7 14v4H6c-.55 0-1-.45-1-1v-3h2m5-13c-4.97 0-9 4.03-9 9v7c0 1.66 1.34 3 3 3h3v-8H5v-2c0-3.87 3.13-7 7-7s7 3.13 7 7v2h-4v8h3c1.66 0 3-1.34 3-3v-7c0-4.97-4.03-9-9-9z"
     id="path4" />
  <g
     aria-label="AMB"
     id="text7917"
     style="font-style:italic;font-size:5.33333px;line-height:124%;font-family:Sans;-inkscape-font-specification:'Sans Italic';letter-spacing:0px;word-spacing:0px;stroke-width:1px">
    <path
       d="M 8.0364604,7.6800007 7.3229192,9.6148954 H 8.7526058 Z M 7.7395856,7.1617719 h 0.5963538 l 1.48177,3.8880181 H 9.2708347 L 8.9166682,10.052395 H 7.1640651 L 6.8098987,11.04979 H 6.2552115 Z"
       style="font-style:normal;-inkscape-font-specification:Sans"
       id="path10037" />
    <path
       d="m 10.385417,7.1617719 h 0.783854 l 0.992187,2.6458317 0.997395,-2.6458317 h 0.783854 V 11.04979 H 13.429686 V 7.6357299 L 12.427083,10.302395 H 11.898437 L 10.895834,7.6357299 V 11.04979 h -0.510417 z"
       style="font-style:normal;-inkscape-font-specification:Sans"
       id="path10039" />
    <path
       d="m 15.513019,9.1930207 v 1.4244783 h 0.843749 q 0.424479,0 0.627604,-0.174479 0.205729,-0.177083 0.205729,-0.5390623 0,-0.3645831 -0.205729,-0.536458 -0.203125,-0.174479 -0.627604,-0.174479 z m 0,-1.5989574 v 1.1718743 h 0.778645 q 0.385416,0 0.572916,-0.1432291 0.190104,-0.1458333 0.190104,-0.4427081 0,-0.2942706 -0.190104,-0.4401039 -0.1875,-0.1458332 -0.572916,-0.1458332 z M 14.986977,7.1617719 h 1.343749 q 0.601563,0 0.927083,0.2499998 0.325521,0.2499999 0.325521,0.7109371 0,0.3567706 -0.166667,0.567708 -0.166666,0.2109374 -0.489583,0.2630207 0.388021,0.083333 0.601562,0.3489581 0.216146,0.2630207 0.216146,0.6588538 0,0.5208326 -0.354166,0.8046866 -0.354167,0.283854 -1.007812,0.283854 h -1.395833 z"
       style="font-style:normal;-inkscape-font-specification:Sans"
       id="path10041" />
  </g>
</svg>
